<svg width="16" height="16" viewBox="0 0 16 16" fill="none" xmlns="http://www.w3.org/2000/svg">
<g clip-path="url(#clip0_560_44)">
<path d="M8 12V8H12H16V16H8V12Z" fill="#373737"/>
<path d="M8 0V8H0L0 0L8 0Z" fill="#373737"/>
<path d="M11.5 5L13.5 7.5L15.5 5H14V3H13V5H11.5Z" fill="#373737"/>
<path d="M11 0.5L8.5 2.5L11 4.5L11 3H13V2H11V0.5Z" fill="#373737"/>
<path d="M3 10C4.65685 10 6 11.3431 6 13C6 14.6569 4.65685 16 3 16C1.34315 16 0 14.6569 0 13H1C1 14.1046 1.89543 15 3 15C4.10457 15 5 14.1046 5 13C5 11.8954 4.10457 11 3 11V12.5L0.5 10.5L3 8.5V10Z" fill="#373737"/>
</g>
<defs>
<clipPath id="clip0_560_44">
<rect width="16" height="16" fill="white"/>
</clipPath>
</defs>
</svg>
